<?xml version="1.0" standalone="no"?>
<!DOCTYPE svg PUBLIC "-//W3C//DTD SVG 20010904//EN"
 "http://www.w3.org/TR/2001/REC-SVG-20010904/DTD/svg10.dtd">
<svg version="1.0" xmlns="http://www.w3.org/2000/svg"
 width="1024.000000pt" height="1024.000000pt" viewBox="0 0 1024.000000 1024.000000"
 preserveAspectRatio="xMidYMid meet">

<g transform="translate(0.000000,1024.000000) scale(0.100000,-0.100000)"
fill="#000000" stroke="none">
<path d="M4360 7555 l-1155 -1155 370 -370 370 -370 1525 1525 1525 1525 -740
0 -740 0 -1155 -1155z"/>
<path d="M4887 5962 l-627 -627 633 -633 632 -632 738 0 c405 0 737 3 737 8 0
4 -284 291 -630 637 l-631 630 628 622 628 622 -740 1 -740 0 -628 -628z"/>
<path d="M2323 3421 c-101 -35 -160 -90 -211 -199 l-27 -57 0 -800 0 -800 32
-65 c37 -76 52 -94 115 -142 98 -75 -148 -69 2923 -66 l2750 3 56 26 c79 37
133 90 171 167 l33 67 0 815 0 815 -22 47 c-30 66 -105 143 -172 175 l-56 28
-2770 2 c-2645 2 -2772 2 -2822 -16z m5613 -98 c23 -12 58 -41 78 -65 67 -78
66 -58 66 -892 0 -480 -4 -764 -10 -788 -18 -63 -70 -129 -130 -162 l-55 -31
-2750 0 c-2304 0 -2756 2 -2789 14 -54 19 -115 77 -142 136 l-24 50 0 775 c0
529 4 787 11 814 15 54 111 149 164 163 28 8 888 11 2790 10 l2750 -2 41 -22z"/>
<path d="M2835 3045 c-103 -36 -144 -165 -84 -262 28 -44 71 -68 160 -88 87
-19 119 -42 119 -85 0 -91 -174 -96 -216 -6 l-17 35 -44 -30 c-23 -17 -43 -35
-43 -42 0 -28 52 -86 97 -108 61 -30 199 -34 249 -6 61 32 104 105 104 176 0
40 -39 109 -73 130 -18 11 -72 31 -122 45 -93 26 -115 42 -115 86 0 48 22 65
85 65 53 0 59 -3 85 -34 l28 -33 46 17 c25 10 46 20 46 22 0 12 -31 61 -52 80
-55 51 -167 68 -253 38z"/>
<path d="M3240 2750 l0 -300 60 0 60 0 2 193 3 192 70 -162 70 -163 52 0 51 0
45 108 c24 59 53 130 62 157 10 28 22 54 27 60 4 5 8 -82 8 -193 l0 -202 60 0
60 0 0 305 0 305 -79 0 -79 0 -77 -187 c-43 -104 -79 -189 -80 -191 -1 -1 -11
21 -22 50 -11 29 -47 115 -79 191 l-58 137 -78 0 -78 0 0 -300z"/>
<path d="M4080 2803 c-52 -135 -105 -272 -117 -305 l-23 -58 68 0 67 0 26 73
26 72 114 3 114 3 28 -76 28 -75 64 0 65 0 -35 98 c-20 53 -70 190 -113 305
l-76 207 -71 0 -70 0 -95 -247z m200 -1 c19 -53 36 -101 38 -107 1 -6 -29 -9
-80 -8 -46 1 -82 5 -81 10 10 36 77 203 82 203 3 0 22 -44 41 -98z"/>
<path d="M4610 2751 l0 -301 60 0 60 0 0 105 0 105 44 0 44 0 62 -105 62 -105
78 0 78 0 -74 113 c-64 97 -72 113 -58 122 77 47 111 113 101 197 -8 62 -38
109 -92 140 -36 21 -55 23 -202 26 l-163 4 0 -301z m308 166 c28 -26 30 -85 3
-118 -17 -21 -29 -24 -105 -28 l-86 -3 0 92 0 93 83 -8 c63 -5 87 -11 105 -28z"/>
<path d="M5120 3000 l0 -50 95 0 95 0 0 -250 0 -250 60 0 60 0 0 245 0 244 93
3 92 3 3 53 3 52 -250 0 -251 0 0 -50z"/>
<path d="M5930 2752 c0 -164 2 -301 4 -303 2 -2 32 -2 65 -1 l61 4 0 104 0
104 68 0 c165 0 242 62 242 195 0 67 -13 101 -53 143 -43 44 -79 52 -244 52
l-143 0 0 -298z m296 165 c15 -17 24 -40 24 -60 -1 -61 -40 -87 -129 -87 l-61
0 0 91 0 91 71 -4 c63 -3 74 -7 95 -31z"/>
<path d="M6452 2833 c3 -193 6 -223 24 -263 70 -153 306 -189 429 -65 25 25
48 59 54 81 6 22 11 132 11 252 l0 212 -60 0 -60 0 0 -200 c0 -222 -8 -263
-59 -293 -36 -21 -103 -22 -142 -1 -58 30 -69 74 -69 297 l0 197 -66 0 -66 0
4 -217z"/>
<path d="M7090 2745 l0 -305 103 0 c267 1 347 42 347 177 0 60 -27 107 -75
130 l-35 17 35 28 c62 52 69 153 12 206 -46 43 -87 52 -242 52 l-145 0 0 -305z
m285 185 c9 -7 15 -29 15 -51 0 -53 -26 -69 -110 -69 l-65 0 2 67 c1 38 2 70
2 72 2 9 142 -8 156 -19z m5 -235 c32 -17 46 -51 36 -91 -9 -34 -59 -54 -135
-54 l-59 0 -4 80 -3 80 68 0 c41 0 80 -6 97 -15z"/>
<path d="M5756 2274 c-70 -22 -149 -104 -170 -174 -21 -71 -21 -194 1 -261 54
-168 285 -237 405 -122 l27 25 6 -35 c7 -33 9 -35 52 -39 25 -2 47 0 49 4 3 4
4 77 3 163 l-1 155 -144 0 -144 0 0 -45 0 -45 85 0 c96 0 102 -7 65 -68 -27
-43 -80 -66 -143 -59 -95 9 -147 81 -147 202 0 84 23 142 70 175 69 49 172 32
211 -35 12 -19 23 -35 26 -35 16 0 93 54 93 66 0 22 -70 93 -113 116 -54 27
-166 33 -231 12z"/>
<path d="M3000 1970 l0 -300 60 0 60 0 2 196 3 195 70 -161 70 -161 53 3 54 3
68 159 68 158 7 -198 7 -199 52 1 c28 1 52 4 54 8 1 3 2 139 2 301 l0 295 -79
0 -79 0 -78 -189 -78 -189 -31 77 c-18 42 -54 127 -80 189 l-49 112 -78 0 -78
0 0 -300z"/>
<path d="M3840 2003 c-56 -148 -109 -285 -116 -306 l-13 -38 67 3 67 3 24 68
23 67 118 0 117 0 25 -67 25 -68 68 -3 c62 -3 67 -1 60 15 -4 10 -55 147 -114
305 l-106 288 -71 0 -71 0 -103 -267z m207 27 c17 -47 34 -93 38 -102 6 -16
-1 -18 -77 -18 l-85 0 40 110 c22 61 43 107 47 103 4 -5 21 -46 37 -93z"/>
<path d="M4380 1970 l0 -300 62 0 61 0 -6 203 c-5 158 -3 198 6 185 7 -10 66
-101 132 -203 l119 -185 63 0 63 0 0 300 0 300 -61 0 -60 0 3 -203 3 -204
-135 203 -135 203 -57 1 -58 0 0 -300z"/>
<path d="M5070 1978 c-62 -161 -114 -297 -116 -303 -3 -6 20 -8 62 -5 l67 5
22 60 23 60 123 0 123 0 20 -62 20 -63 68 0 c62 0 68 2 59 18 -7 13 -95 255
-203 555 -10 26 -12 27 -82 27 l-73 0 -113 -292z m222 39 c20 -56 36 -103 34
-105 -2 -1 -39 -2 -83 0 l-80 3 40 107 c23 59 44 105 47 102 2 -3 21 -51 42
-107z"/>
<path d="M6234 2168 c3 -57 5 -192 5 -300 l1 -198 200 0 200 0 0 50 0 50 -140
0 -140 0 0 75 0 75 121 0 120 0 -3 51 -3 52 -117 -2 -118 -2 0 74 c0 64 2 74
18 74 9 0 72 1 140 2 l122 1 0 50 0 50 -205 0 -204 0 3 -102z"/>
<path d="M6740 1970 l0 -300 63 0 62 0 -3 110 -3 110 43 0 43 0 64 -110 64
-110 73 0 c41 0 74 3 74 7 0 4 -33 56 -72 117 -45 66 -68 111 -61 113 29 10
67 49 84 87 47 104 -6 237 -106 265 -22 6 -104 11 -182 11 l-143 0 0 -300z
m306 166 c21 -29 18 -92 -5 -115 -21 -21 -86 -35 -141 -29 l-35 3 -3 74 c-2
41 -1 79 1 85 3 7 32 9 87 6 66 -4 84 -9 96 -24z"/>
</g>
</svg>
